<?xml version="1.0" standalone="no"?>
<!DOCTYPE svg PUBLIC "-//W3C//DTD SVG 20010904//EN"
 "http://www.w3.org/TR/2001/REC-SVG-20010904/DTD/svg10.dtd">
<svg version="1.0" xmlns="http://www.w3.org/2000/svg"
 width="500.000000pt" height="500.000000pt" viewBox="0 0 500.000000 500.000000"
 preserveAspectRatio="xMidYMid meet">

<g transform="translate(0.000000,500.000000) scale(0.100000,-0.100000)"
fill="#000000" stroke="none">
<path d="M1983 4158 c-103 -67 -242 -156 -308 -198 -66 -42 -162 -105 -214
-138 -51 -34 -97 -62 -102 -62 -5 0 -9 58 -9 128 0 86 -4 132 -12 140 -15 15
-340 17 -369 2 -18 -10 -19 -24 -19 -274 l0 -264 -145 -94 c-455 -293 -475
-307 -475 -332 0 -59 27 -46 403 197 199 128 604 390 900 582 l539 348 31 -16
c18 -9 115 -71 217 -137 226 -148 514 -334 760 -493 102 -66 268 -174 370
-240 102 -66 214 -139 250 -162 36 -23 91 -59 122 -79 65 -43 92 -44 96 -4 3
25 -9 35 -148 125 -308 200 -511 331 -708 458 -111 72 -271 176 -357 231
l-156 102 150 96 149 97 159 -104 c87 -57 325 -213 528 -347 204 -133 413
-271 465 -305 52 -34 196 -128 319 -209 168 -110 230 -146 250 -144 20 2 26 9
26 27 0 20 -29 43 -177 140 -538 352 -841 550 -1179 773 -207 136 -384 248
-393 248 -9 0 -92 -49 -185 -110 -93 -60 -175 -110 -181 -110 -10 0 -320 194
-360 225 -36 29 -50 23 -237 -97z m-703 -325 l0 -128 -108 -69 c-59 -38 -117
-76 -129 -84 l-23 -14 0 211 0 211 130 0 130 0 0 -127z"/>
<path d="M2405 2813 c-68 -9 -124 -35 -159 -73 -46 -51 -51 -72 -51 -215 0
-95 4 -127 18 -152 43 -81 114 -113 246 -113 149 1 242 63 253 170 l3 35 -89
3 -89 3 -32 -36 c-37 -40 -66 -44 -95 -15 -17 17 -20 33 -20 115 0 82 3 98 20
115 31 31 65 25 96 -15 l27 -36 91 3 c90 3 91 3 89 28 -8 78 -58 140 -131 164
-53 16 -132 25 -177 19z"/>
<path d="M4112 2809 c-65 -11 -99 -28 -140 -70 -43 -44 -52 -82 -52 -215 0
-136 19 -182 94 -228 41 -26 60 -30 137 -34 56 -3 107 0 136 9 63 17 127 80
143 139 17 61 9 245 -12 285 -47 89 -173 136 -306 114z m108 -159 c17 -17 20
-33 20 -115 0 -82 -3 -98 -20 -115 -24 -24 -48 -25 -78 -4 -20 14 -22 23 -22
119 0 96 2 105 22 119 30 21 54 20 78 -4z"/>
<path d="M615 2798 c-3 -8 -4 -130 -3 -273 l3 -260 215 0 215 0 3 73 3 72
-131 0 -130 0 0 30 0 30 120 0 120 0 0 65 0 64 -117 3 -118 3 -3 27 -3 27 128
3 128 3 0 70 0 70 -213 3 c-166 2 -214 0 -217 -10z"/>
<path d="M1156 2795 c-3 -9 -6 -128 -6 -265 0 -198 3 -250 14 -259 9 -8 75
-11 217 -9 l204 3 0 75 0 75 -117 3 -118 3 -2 192 -3 192 -91 3 c-77 2 -93 0
-98 -13z"/>
<path d="M1666 2794 c-3 -9 -6 -127 -6 -264 0 -198 3 -250 14 -259 9 -8 77
-11 222 -9 l209 3 0 70 0 70 -127 3 -128 3 0 29 0 29 118 3 117 3 0 60 0 60
-117 3 -118 3 0 29 0 30 125 0 125 0 0 75 0 75 -214 0 c-186 0 -215 -2 -220
-16z"/>
<path d="M2777 2804 c-4 -4 -7 -40 -7 -80 0 -71 1 -74 26 -80 14 -4 47 -4 75
-2 l49 5 0 -181 c0 -100 4 -187 8 -194 6 -9 33 -12 98 -10 l89 3 5 189 5 190
60 -2 c33 -1 66 1 73 6 9 6 12 30 10 83 l-3 74 -241 3 c-132 1 -243 -1 -247
-4z"/>
<path d="M3355 2798 c-3 -7 -4 -130 -3 -273 l3 -260 90 0 90 0 3 83 c3 78 4
83 24 80 15 -2 29 -23 53 -77 18 -40 39 -77 46 -82 20 -12 176 -11 184 1 4 6
-14 49 -39 96 -25 48 -46 91 -46 96 0 6 11 19 24 29 36 28 60 99 52 153 -10
62 -43 107 -101 136 -46 23 -63 25 -212 29 -131 2 -164 0 -168 -11z m277 -154
c17 -37 0 -58 -51 -62 l-41 -3 0 45 0 46 40 0 c34 0 42 -4 52 -26z"/>
<path d="M1195 1848 c-55 -128 -103 -240 -107 -250 -7 -16 -1 -18 56 -18 l63
0 13 40 c7 22 19 45 25 50 6 5 58 9 115 7 l102 -2 18 -45 18 -45 67 -3 c37 -2
65 1 62 5 -4 6 -181 424 -204 481 -3 8 -27 12 -67 12 l-61 0 -100 -232z m194
19 c43 -109 44 -107 -39 -107 -38 0 -70 4 -70 8 0 5 11 37 25 73 39 97 45 112
50 108 2 -2 17 -39 34 -82z"/>
<path d="M1920 1831 l0 -251 60 0 60 0 0 70 0 70 53 0 52 0 38 -70 37 -70 65
0 c36 0 65 2 65 5 0 2 -22 39 -49 81 l-49 77 30 26 c91 76 74 232 -30 282 -37
18 -68 23 -188 27 l-144 5 0 -252z m281 130 c18 -14 24 -29 24 -61 0 -61 -27
-80 -116 -80 l-69 0 0 80 0 80 69 0 c53 0 74 -4 92 -19z"/>
<path d="M2806 2064 c-62 -20 -137 -93 -154 -150 -30 -103 -10 -190 61 -259
99 -96 235 -102 359 -14 l30 22 -38 38 -37 38 -24 -19 c-88 -69 -202 -36 -233
67 -26 85 23 173 103 188 46 9 74 2 121 -30 l37 -25 27 32 c15 17 27 39 27 47
0 9 -24 29 -54 45 -66 35 -153 43 -225 20z"/>
<path d="M3536 2064 c-62 -20 -137 -93 -154 -150 -37 -124 13 -251 122 -306
50 -25 154 -35 213 -19 166 45 235 248 133 389 -60 84 -201 122 -314 86z m160
-100 c98 -47 105 -207 11 -264 -98 -60 -224 23 -214 141 9 106 110 167 203
123z"/>
</g>
</svg>
