<svg xmlns="http://www.w3.org/2000/svg" width="500" height="500" viewBox="0 0 500 500" version="1.1"><path d="M 182.568 70.750 C 173.765 89.064, 81.737 288.903, 79.989 293.500 C 76.840 301.784, 76.069 319.726, 78.468 328.920 C 80.810 337.896, 85.021 345.767, 90.954 352.259 C 95.707 357.459, 104.455 364, 106.658 364 C 107.198 364, 119.984 337.239, 135.070 304.532 L 162.500 245.063 251.701 245.032 C 313.765 245.010, 342.514 244.658, 346.201 243.877 C 364.529 239.992, 379.734 222.650, 383.542 201.287 C 384.306 197.004, 384.946 192.715, 384.965 191.755 C 384.998 190.108, 379.464 189.995, 286.662 189.755 L 188.324 189.500 200.111 164 C 206.738 149.661, 212.576 135.569, 213.448 131.803 C 217.860 112.761, 212.920 91.732, 200.961 78.648 C 196.283 73.530, 187.531 67, 185.348 67 C 184.810 67, 183.559 68.688, 182.568 70.750 M 262.315 84.464 C 256.473 87.004, 256 89.289, 256 114.950 L 256 138 323.806 138 C 390.435 138, 391.722 137.963, 397.944 135.862 C 406.738 132.892, 415.639 126.529, 421.150 119.272 C 427.647 110.718, 430.199 103.548, 430.771 92.250 L 431.239 83 348.369 83.039 C 280.019 83.071, 264.942 83.321, 262.315 84.464 M 256 323.947 L 256 352 343.500 352 L 431 352 431 347.710 C 431 327.598, 414.146 305.846, 393.072 298.761 C 386.603 296.586, 385.473 296.546, 321.250 296.222 L 256 295.894 256 323.947 M 214.182 355.097 C 204.274 357.123, 197.981 373.414, 202.624 385.018 C 204.524 389.767, 208.136 392, 213.916 392 C 218.288 392, 223.339 388.472, 225.950 383.594 C 227.167 381.319, 227.116 380.786, 225.509 379.010 C 223.006 376.244, 222.193 376.444, 218.487 380.731 C 215.590 384.082, 215.085 384.316, 213.528 383.023 C 210.238 380.293, 212.875 364.504, 216.836 363.212 C 217.831 362.887, 218.088 363.762, 217.840 366.638 L 217.507 370.500 222.504 370.500 L 227.500 370.500 227.796 365.432 C 228.049 361.103, 227.717 359.990, 225.519 357.792 C 222.649 354.922, 219.129 354.085, 214.182 355.097 M 296.355 354.941 C 290.911 357.268, 287.015 366.159, 287.006 376.282 C 286.995 386.877, 290.852 392, 298.840 392 C 302.586 392, 303.789 391.446, 306.983 388.250 C 314.282 380.945, 315.114 363.213, 308.451 356.954 C 305.933 354.589, 299.632 353.540, 296.355 354.941 M 388 355.046 C 381.483 356.521, 374.989 367.209, 375.006 376.432 C 375.015 381.816, 376.969 386.796, 380.106 389.436 C 385.957 394.359, 395.554 391.957, 399.530 384.574 C 401.352 381.190, 401.353 381.047, 399.545 379.050 C 397.082 376.328, 395.624 376.465, 393.959 379.577 C 391.865 383.489, 388.987 384.688, 387.242 382.377 C 384.302 378.482, 387.734 363, 391.537 363 C 392.711 363, 392.889 363.841, 392.384 367 L 391.744 371 396.741 371 C 401.712 371, 401.741 370.981, 402.328 367.368 C 403.759 358.550, 397.251 352.953, 388 355.046 M 412.182 355.974 C 407.749 358.752, 404.796 365.644, 404.219 374.556 C 403.842 380.374, 404.134 382.343, 405.884 385.773 C 408.355 390.616, 410.489 392, 415.484 392 C 424.057 392, 428.984 385.586, 429.781 373.387 C 430.044 369.358, 429.746 364.761, 429.094 362.784 C 426.580 355.166, 418.600 351.953, 412.182 355.974 M 125.835 355.673 C 123.332 356.336, 123.096 357.686, 122.365 375.530 L 121.690 392 129.705 392 C 134.114 392, 139.809 391.714, 142.360 391.364 L 147 390.728 147 386.364 L 147 382 139.500 382 C 132.907 382, 132 381.779, 132 380.176 C 132 378.703, 133.205 378.173, 138.250 377.426 L 144.500 376.500 144.810 372.750 C 145.152 368.622, 145.393 368.743, 137.326 368.984 C 132.644 369.123, 132.200 368.951, 132.664 367.178 C 133.092 365.541, 134.395 365.104, 140.588 364.524 L 148 363.829 148 359.415 L 148 355 137.750 355.116 C 132.113 355.180, 126.751 355.430, 125.835 355.673 M 150.591 366.750 C 150.257 373.212, 149.762 381.516, 149.490 385.202 L 148.995 391.904 169.747 391.863 C 181.161 391.840, 192.300 391.516, 194.500 391.144 C 198.384 390.486, 198.500 390.350, 198.500 386.483 L 198.500 382.500 190.685 382.207 C 183.946 381.954, 182.915 381.679, 183.194 380.207 C 183.436 378.935, 185.122 378.271, 189.810 377.604 L 196.101 376.707 195.800 372.604 L 195.500 368.500 189.750 368.842 C 184.600 369.149, 184 368.981, 184 367.236 C 184 365.549, 184.956 365.198, 191.126 364.625 C 195.045 364.261, 198.645 363.720, 199.126 363.422 C 199.607 363.125, 200 361.071, 200 358.857 L 200 354.833 188.081 355.166 C 181.525 355.350, 175.869 355.793, 175.512 356.152 C 175.155 356.510, 174.595 362.810, 174.267 370.152 C 173.940 377.493, 173.483 382.938, 173.252 382.250 C 172.974 381.419, 170.630 381, 166.266 381 L 159.698 381 160.276 368 L 160.854 355 156.026 355 L 151.197 355 150.591 366.750 M 230.695 355.638 C 230.313 356.021, 230 358.566, 230 361.294 L 230 366.256 234.088 365.602 L 238.176 364.948 237.870 378.224 L 237.564 391.500 242.130 391.799 L 246.696 392.097 247.342 383.799 C 247.697 379.234, 247.991 372.913, 247.994 369.750 L 248 364 251.981 364 C 255.359 364, 256.054 363.633, 256.570 361.579 C 258.031 355.755, 257.574 355.524, 243.933 355.222 C 237.034 355.068, 231.077 355.256, 230.695 355.638 M 263.869 355.721 C 259.510 356.184, 259.459 356.388, 258.416 377.750 L 257.719 392 262.360 392 L 267 392 267 386.427 C 267 381.843, 267.285 380.911, 268.605 381.177 C 269.941 381.446, 274.099 387.797, 275.302 391.407 C 275.506 392.019, 276.831 391.898, 278.783 391.090 C 284.088 388.893, 284.422 387.766, 281.485 381.970 L 278.856 376.782 281.011 374.488 C 285.485 369.726, 285.334 359.748, 280.739 356.529 C 278.624 355.049, 272.828 354.771, 263.869 355.721 M 327.280 355.806 C 325.234 357.106, 314 387.056, 314 391.210 C 314 391.645, 316.439 392, 319.421 392 C 324.586 392, 324.871 391.864, 325.477 389.105 C 325.983 386.800, 326.763 386.113, 329.306 385.733 C 332.774 385.214, 333.961 386.233, 333.985 389.750 C 333.999 391.814, 334.463 392, 339.608 392 C 344.921 392, 345.188 391.881, 344.668 389.750 C 344.365 388.512, 343.389 383.225, 342.498 378 C 339.011 357.560, 337.863 354.992, 332.227 355.015 C 330.177 355.024, 327.951 355.380, 327.280 355.806 M 352 355.882 L 348.500 356.500 347.871 364.500 C 347.525 368.900, 346.933 376.913, 346.556 382.307 L 345.871 392.115 350.685 391.807 L 355.500 391.500 355.802 386.250 C 356.196 379.406, 357.839 379.481, 361.281 386.500 C 362.764 389.525, 364.476 392, 365.085 392 C 367.015 392, 372 388.620, 372 387.311 C 372 386.619, 371.041 384.079, 369.868 381.665 L 367.736 377.276 370.009 374.202 C 371.383 372.344, 372.472 369.144, 372.763 366.110 C 373.202 361.541, 372.973 360.819, 370.200 358.046 C 367.457 355.303, 366.573 355.013, 361.327 355.132 C 358.122 355.204, 353.925 355.542, 352 355.882 M 298.869 364.189 C 298.161 365.480, 297.579 370.020, 297.551 374.475 C 297.508 381.197, 297.766 382.504, 299.195 382.788 C 301.511 383.249, 303.182 376.761, 302.797 368.798 C 302.476 362.171, 300.954 360.385, 298.869 364.189 M 415.943 365.139 C 415.210 366.906, 414.586 371.524, 414.556 375.400 C 414.509 381.245, 414.788 382.504, 416.191 382.785 C 418.579 383.263, 420.215 377.081, 419.818 369.079 C 419.461 361.870, 417.938 360.322, 415.943 365.139 M 268.667 364.667 C 268.300 365.033, 268 366.608, 268 368.167 C 268 371.563, 270.089 371.911, 273 369 C 275.911 366.089, 275.563 364, 272.167 364 C 270.608 364, 269.033 364.300, 268.667 364.667 M 357 365.918 C 357 366.973, 356.727 368.548, 356.393 369.418 C 355.527 371.676, 359.246 371.490, 361.345 369.171 C 364.028 366.207, 363.454 364, 360 364 C 357.709 364, 357 364.454, 357 365.918 M 329.773 373.408 C 329.436 375.171, 329.713 376, 330.639 376 C 332.170 376, 332.398 374.176, 331.119 372.158 C 330.498 371.178, 330.135 371.515, 329.773 373.408" stroke="none" fill="#ff1414" fill-rule="evenodd"/><path d="" stroke="none" fill="#fc1414" fill-rule="evenodd"/></svg>