<?xml version="1.0" standalone="no"?>
<!DOCTYPE svg PUBLIC "-//W3C//DTD SVG 20010904//EN"
 "http://www.w3.org/TR/2001/REC-SVG-20010904/DTD/svg10.dtd">
<svg version="1.0" xmlns="http://www.w3.org/2000/svg"
 width="627.000000pt" height="627.000000pt" viewBox="0 0 627.000000 627.000000"
 preserveAspectRatio="xMidYMid meet">

<g transform="translate(0.000000,627.000000) scale(0.100000,-0.100000)"
fill="#000000" stroke="none">
<path d="M3834 4989 c-411 -39 -713 -299 -790 -678 -20 -104 -15 -311 11 -411
105 -399 480 -650 934 -627 467 24 797 318 850 757 35 286 -79 586 -287 754
-195 157 -453 231 -718 205z m238 -517 c179 -80 265 -314 189 -514 -29 -76
-105 -159 -179 -195 -51 -25 -67 -28 -162 -28 -93 0 -112 3 -162 27 -71 33
-138 101 -175 176 -38 78 -45 228 -15 315 40 111 117 191 225 229 70 25 212
20 279 -10z"/>
<path d="M1302 4088 l3 -833 445 -2 c245 -2 598 1 785 5 l340 7 0 250 0 250
-507 3 -508 2 0 575 0 575 -280 0 -280 0 2 -832z"/>
<path d="M2005 3150 c-171 -18 -355 -90 -486 -189 -320 -243 -405 -757 -187
-1126 109 -185 312 -327 544 -381 121 -29 337 -25 465 9 291 76 489 267 582
563 30 95 57 264 57 358 l0 66 -450 0 -450 0 0 -215 0 -215 175 0 c100 0 175
-4 175 -9 0 -17 -83 -81 -140 -109 -50 -24 -66 -27 -165 -27 -100 0 -116 3
-173 29 -81 38 -171 131 -203 213 -20 49 -24 76 -24 178 0 114 2 123 31 185
39 84 117 163 191 197 62 29 167 41 247 29 77 -12 179 -94 242 -194 3 -5 414
209 414 215 0 25 -78 133 -144 199 -94 93 -175 144 -296 184 -130 43 -256 56
-405 40z"/>
<path d="M3811 3149 c-241 -28 -483 -157 -608 -324 -63 -84 -116 -190 -145
-292 -31 -106 -33 -360 -4 -468 82 -309 310 -524 643 -607 125 -31 351 -31
475 0 384 95 622 356 667 732 35 288 -81 591 -294 762 -128 103 -314 177 -498
197 -107 12 -130 12 -236 0z m200 -503 c156 -36 263 -168 276 -339 10 -126
-23 -221 -105 -309 -73 -78 -127 -101 -247 -106 -85 -3 -109 -1 -158 18 -75
28 -158 108 -195 187 -24 53 -27 69 -27 173 0 105 2 120 28 175 29 62 89 132
143 165 72 45 187 60 285 36z"/>
</g>
</svg>
